:SAMPLES-PER-SECOND 30
:FULLY-SPECIFIED
:DEGREES
490
root  5.15601 39.9302 -5.71022 178.899 -89.0072 -178.484
RightUpLeg  -12.4597 -11.7859 2.54989
RightLeg  20.5268 -1.72386 -0.738613
RightFoot  -8.96513 0.00256409 -3.03878
RightToes  -4.65663e-010 0 -3.6325e-017
Spine  3.98148 1.25835 5.01304
Spine1  10.3973 2.47826 -3.14598
HEad  38.8341 25.6761 -2.00452
LeftShoulder1  6.32315 -8.75574 -44.9072
LeftArm  -20.8157 29.0407 -19.7603
LeftForeArm  72.5109 -74.6072 -31.9903
LeftHand  -0.244104 0.0205437 5.32207
RightShoulder  5.98827 9.27205 40.6933
RightArm  0.764248 -17.0706 26.383
RightForeArm  -11.158 24.0026 5.6866
RightHand  -0.744429 0.185754 -15.5314
LeftUpLeg  -8.44655 -10.0288 14.5608
LeftLeg  14.7961 5.9033 2.70727
LeftFoot  -3.95719 -0.411384 6.74417
LeftToes  4.18335e-011 1.59304e-011 3.38507e-012
491
root  5.13487 39.8397 -5.8867 153.674 -87.8736 -153.312
RightUpLeg  -12.5145 -11.442 3.85581
RightLeg  20.7632 -1.32344 -0.689692
RightFoot  -9.20771 -0.00801511 -2.91225
RightToes  -4.65663e-010 0 -3.6325e-017
Spine  4.05677 1.87537 5.55487
Spine1  10.558 3.18788 -3.33816
HEad  39.0024 25.5859 -1.66795
LeftShoulder1  6.29935 -8.71154 -44.8991
LeftArm  -21.2033 29.2249 -19.7981
LeftForeArm  72.288 -74.4778 -31.6554
LeftHand  -0.244104 0.0205437 5.32207
RightShoulder  6.05141 9.3706 40.8173
RightArm  1.28272 -16.297 25.8383
RightForeArm  -11.4696 23.2235 5.56116
RightHand  -0.698286 -0.087018 -15.2967
LeftUpLeg  -8.03783 -9.49776 14.0092
LeftLeg  14.8619 9.3603 3.90618
LeftFoot  -4.79575 -0.598937 11.0298
LeftToes  4.18335e-011 1.59304e-011 3.38507e-012
492
root  5.1291 39.7505 -6.06419 142.374 -86.993 -141.956
RightUpLeg  -12.5861 -11.3275 5.15763
RightLeg  20.8456 -1.08466 -0.614671
RightFoot  -9.47024 -0.0212184 -2.62114
RightToes  -4.65663e-010 0 -3.6325e-017
Spine  4.15448 2.3421 5.37802
Spine1  10.4861 3.47604 -2.62074
HEad  39.3106 25.5143 -1.32456
LeftShoulder1  6.24118 -8.62213 -44.8075
LeftArm  -21.5445 29.6915 -19.9886
LeftForeArm  72.245 -74.4005 -31.4408
LeftHand  -0.244104 0.0205437 5.32207
RightShoulder  6.09449 9.41249 40.9879
RightArm  1.48132 -15.6583 25.3999
RightForeArm  -11.4787 23.0016 5.54386
RightHand  -0.615526 -0.61125 -14.9351
LeftUpLeg  -8.35558 -11.6469 14.2477
LeftLeg  16.1751 14.421 5.43192
LeftFoot  -6.13853 -0.68571 15.7623
LeftToes  4.18335e-011 1.59304e-011 3.38507e-012
493
root  5.13458 39.6587 -6.25462 127.973 -86.5294 -127.403
RightUpLeg  -12.7128 -11.8843 6.37711
RightLeg  20.922 -0.839958 -0.449536
RightFoot  -9.94135 -0.0407367 -2.15573
RightToes  -4.65663e-010 0 -3.6325e-017
Spine  4.11806 2.58564 4.67894
Spine1  10.496 3.34042 -1.19243
HEad  39.2892 25.47 -0.911091
LeftShoulder1  6.2061 -8.57866 -44.7115
LeftArm  -21.6595 30.1268 -19.9684
LeftForeArm  72.353 -74.4131 -31.4551
LeftHand  -0.244104 0.0205437 5.32207
RightShoulder  6.10716 9.39696 41.1334
RightArm  0.777516 -15.38 25.4593
RightForeArm  -11.4448 23.5227 5.6071
RightHand  -0.602664 -0.756058 -15.0572
LeftUpLeg  -9.38426 -14.4096 15.5602
LeftLeg  18.0621 16.6107 6.23494
LeftFoot  -7.07648 -0.598448 17.0281
LeftToes  4.18335e-011 1.59304e-011 3.38507e-012
494
root  5.12743 39.5909 -6.44447 115.221 -86.1754 -114.412
RightUpLeg  -12.8395 -12.8315 7.33749
RightLeg  20.9096 -0.399921 -0.136116
RightFoot  -10.4934 -0.06074 -1.37593
RightToes  -4.65663e-010 0 -3.6325e-017
Spine  3.80594 2.76275 3.9245
Spine1  10.7273 3.16875 0.0894322
HEad  39.0112 25.3252 -0.392776
LeftShoulder1  6.22617 -8.60022 -44.7792
LeftArm  -21.4008 30.3009 -19.4572
LeftForeArm  72.2989 -74.4278 -31.5084
LeftHand  -0.244104 0.0205437 5.32207
RightShoulder  6.11901 9.39213 41.2362
RightArm  -0.517828 -15.4841 26.0175
RightForeArm  -11.3249 24.3813 5.77396
RightHand  -0.67406 -0.353286 -15.5309
LeftUpLeg  -10.4042 -14.5248 17.0364
LeftLeg  19.0783 15.0629 6.02515
LeftFoot  -7.29386 -0.5009 15.3384
LeftToes  4.18335e-011 1.59304e-011 3.38507e-012
495
root  5.09174 39.5613 -6.60852 111.503 -85.8839 -110.359
RightUpLeg  -13.0137 -13.4899 7.91328
RightLeg  20.8226 0.193931 0.183381
RightFoot  -10.8992 -0.0722385 -0.430836
RightToes  -4.65663e-010 0 -3.6325e-017
Spine  3.31138 3.07578 3.3132
Spine1  10.8957 3.32518 0.640562
HEad  38.9605 25.0287 0.227459
LeftShoulder1  6.27134 -8.63064 -45.0003
LeftArm  -20.9255 30.3856 -18.6552
LeftForeArm  72.036 -74.3495 -31.3378
LeftHand  -0.244104 0.0205437 5.32207
RightShoulder  6.15328 9.42854 41.3595
RightArm  -1.2496 -15.8391 26.6962
RightForeArm  -10.9673 25.1233 5.92857
RightHand  -0.717371 -0.0461212 -15.6001
LeftUpLeg  -10.8577 -13.7837 17.8774
LeftLeg  19.1103 14.3038 5.75564
LeftFoot  -7.23941 -0.468314 14.2185
LeftToes  4.18335e-011 1.59304e-011 3.38507e-012
